<svg xmlns="http://www.w3.org/2000/svg" viewBox="0 0 100 100" width="100" height="100">
  <defs>
    <style>
      .blood { fill: #dc143c; }
      .outline { fill: none; stroke: #000; stroke-width: 3; stroke-linecap: round; stroke-linejoin: round; }
    </style>
  </defs>
  <!-- Blood drop shape -->
  <path class="blood" d="M 50 10 C 30 25, 15 40, 15 55 C 15 72, 30 85, 50 85 C 70 85, 85 72, 85 55 C 85 40, 70 25, 50 10 Z" />
  <!-- Outline -->
  <path class="outline" d="M 50 10 C 30 25, 15 40, 15 55 C 15 72, 30 85, 50 85 C 70 85, 85 72, 85 55 C 85 40, 70 25, 50 10 Z" />
  <!-- Highlight curve inside -->
  <path class="outline" d="M 35 45 Q 35 60, 42 65" />
</svg>